<svg xmlns="http://www.w3.org/2000/svg" viewBox="0 0 512 512">
  <defs>
    <linearGradient id="bg" x1="0" y1="0" x2="1" y2="1">
      <stop offset="0%" stop-color="#fff0c6" />
      <stop offset="100%" stop-color="#ffb44c" />
    </linearGradient>
    <linearGradient id="face" x1="0" y1="0" x2="0" y2="1">
      <stop offset="0%" stop-color="#ffb146" />
      <stop offset="100%" stop-color="#ff7b26" />
    </linearGradient>
  </defs>

  <rect width="512" height="512" rx="132" fill="url(#bg)" />
  <circle cx="256" cy="284" r="150" fill="url(#face)" />
  <ellipse cx="156" cy="142" rx="58" ry="72" fill="#ff9a33" />
  <ellipse cx="356" cy="142" rx="58" ry="72" fill="#ff9a33" />
  <ellipse cx="156" cy="150" rx="32" ry="42" fill="#ff9cab" />
  <ellipse cx="356" cy="150" rx="32" ry="42" fill="#ff9cab" />
  <ellipse cx="256" cy="312" rx="98" ry="86" fill="#fff1cf" />
  <rect x="236" y="126" width="40" height="84" rx="20" fill="#6a3311" />
  <rect x="156" y="174" width="34" height="70" rx="17" fill="#6a3311" transform="rotate(-18 173 209)" />
  <rect x="322" y="174" width="34" height="70" rx="17" fill="#6a3311" transform="rotate(18 339 209)" />
  <ellipse cx="208" cy="250" rx="24" ry="34" fill="#6b3512" />
  <ellipse cx="304" cy="250" rx="24" ry="34" fill="#6b3512" />
  <ellipse cx="216" cy="238" rx="7" ry="10" fill="#ffffff" />
  <ellipse cx="312" cy="238" rx="7" ry="10" fill="#ffffff" />
  <ellipse cx="256" cy="282" rx="18" ry="16" fill="#6b3512" />
  <path
    d="M256 298v30c-28 16-54 16-72 2M256 328c28 18 54 18 72 2"
    fill="none"
    stroke="#6b3512"
    stroke-linecap="round"
    stroke-linejoin="round"
    stroke-width="14"
  />
  <ellipse cx="184" cy="304" rx="24" ry="16" fill="#ff9a96" opacity=".45" />
  <ellipse cx="328" cy="304" rx="24" ry="16" fill="#ff9a96" opacity=".45" />
</svg>
