<svg xmlns="http://www.w3.org/2000/svg" viewBox="0 0 512 512">
  <ellipse cx="122" cy="248" rx="96" ry="118" fill="#a3b6c8"/>
  <ellipse cx="390" cy="248" rx="96" ry="118" fill="#a3b6c8"/>
  <ellipse cx="122" cy="248" rx="62" ry="82" fill="#c4d1dc"/>
  <ellipse cx="390" cy="248" rx="62" ry="82" fill="#c4d1dc"/>
  <circle cx="256" cy="244" r="150" fill="#b3c3d2"/>
  <ellipse cx="256" cy="308" rx="92" ry="70" fill="#d9e2e8"/>
  <path d="M224 254c0-28 18-46 32-46s32 18 32 46v122c0 36-20 60-48 60s-48-24-48-60c0-22 12-38 32-38h32" fill="#a9bccd"/>
  <path d="M212 368c8 14 20 22 44 22s38-8 52-20" fill="none" stroke="#8ca0b2" stroke-linecap="round" stroke-width="14"/>
  <path d="M178 326l-28 36M334 326l28 36" fill="none" stroke="#f4f1ea" stroke-linecap="round" stroke-width="18"/>
</svg>
