<svg xmlns="http://www.w3.org/2000/svg" viewBox="0 0 512 512">
  <path d="M164 158c22-62 84-104 148-104 72 0 130 44 144 122-30-16-66-22-102-22-62 0-122 18-178 52 0 0-18-20-12-48z" fill="#3b2419"/>
  <ellipse cx="138" cy="268" rx="34" ry="54" fill="#d8a889"/>
  <ellipse cx="374" cy="268" rx="34" ry="54" fill="#d8a889"/>
  <path d="M256 120c82 0 142 58 142 144v36c0 90-64 152-142 152s-142-62-142-152v-36c0-86 60-144 142-144z" fill="#e3b390"/>
  <path d="M160 184c42-28 92-44 154-44 32 0 70 6 104 20-10-84-72-126-162-126-70 0-124 48-142 118 0 0 24 30 46 32z" fill="#4a2d1e"/>
  <path d="M204 382c18 12 34 18 52 18s34-6 52-18" fill="none" stroke="#c97e62" stroke-linecap="round" stroke-width="12"/>
</svg>
