<svg xmlns="http://www.w3.org/2000/svg" viewBox="0 0 512 512">
  <path d="M126 218c0-102 66-170 160-170s160 68 160 170v102c0 64-28 112-76 132 10-34 14-76 14-128 0-94-46-144-128-144s-128 50-128 144c0 52 4 94 14 128-48-20-76-68-76-132z" fill="#5c3741"/>
  <circle cx="162" cy="110" r="34" fill="#ff7aa5"/>
  <path d="M142 110c10-18 24-28 40-30-2 18-8 34-18 46-10-2-16-6-22-16z" fill="#ffd6e5"/>
  <ellipse cx="146" cy="272" rx="34" ry="54" fill="#ebb59a"/>
  <ellipse cx="366" cy="272" rx="34" ry="54" fill="#ebb59a"/>
  <path d="M256 118c80 0 134 56 134 140v44c0 88-60 148-134 148s-134-60-134-148v-44c0-84 54-140 134-140z" fill="#f3c0a6"/>
  <path d="M164 186c22-24 54-42 92-42s70 18 92 42" fill="none" stroke="#7b4854" stroke-linecap="round" stroke-width="18"/>
  <path d="M206 386c16 12 32 18 50 18s34-6 50-18" fill="none" stroke="#dc8496" stroke-linecap="round" stroke-width="12"/>
</svg>
